<?xml version="1.0" standalone="no"?>
<!DOCTYPE svg PUBLIC "-//W3C//DTD SVG 20010904//EN"
 "http://www.w3.org/TR/2001/REC-SVG-20010904/DTD/svg10.dtd">
<svg version="1.0" xmlns="http://www.w3.org/2000/svg"
 width="150.000000pt" height="40.000000pt" viewBox="0 0 150.000000 40.000000"
 preserveAspectRatio="xMidYMid meet">
<metadata>
Created by potrace 1.16, written by Peter Selinger 2001-2019
</metadata>
<g transform="translate(0.000000,40.000000) scale(0.100000,-0.100000)"
fill="#000000" stroke="none">
<path d="M710 351 c-21 -6 -23 -8 -9 -17 11 -6 19 -30 23 -73 l7 -64 -38 6
c-21 4 -55 7 -76 7 -23 0 -36 4 -32 10 3 6 26 10 51 10 26 0 44 5 44 11 0 12
-107 7 -143 -6 -25 -10 -21 -24 8 -30 14 -3 36 -7 50 -10 16 -3 22 -10 19 -19
-4 -11 5 -17 30 -22 32 -6 35 -8 20 -19 -15 -11 -14 -13 10 -19 15 -4 24 -11
21 -17 -4 -6 4 -7 22 -3 27 6 27 6 8 -9 -11 -8 -17 -19 -12 -23 4 -4 7 -2 7 4
0 7 5 12 10 12 6 0 10 -9 10 -20 0 -11 5 -20 10 -20 6 0 10 9 10 20 0 11 5 20
10 20 6 0 10 -5 10 -12 0 -6 3 -8 7 -4 5 4 -1 15 -12 23 -19 15 -19 15 8 9 18
-4 26 -3 23 3 -4 5 3 12 14 16 22 7 26 21 8 28 -7 2 4 7 25 11 28 5 37 11 33
22 -3 9 3 16 19 19 14 3 36 7 50 10 29 6 33 20 8 30 -36 13 -143 18 -143 6 0
-6 18 -11 44 -11 25 0 48 -4 51 -10 4 -6 -9 -10 -32 -10 -21 0 -55 -3 -76 -7
l-38 -6 7 64 c4 43 12 67 23 73 14 9 12 11 -9 17 -14 4 -32 7 -40 7 -8 0 -26
-3 -40 -7z"/>
<path d="M395 318 c-60 -5 -140 -7 -178 -6 -71 3 -89 -6 -34 -16 74 -14 318
-35 411 -35 85 -1 97 1 92 15 -3 9 -6 18 -6 20 0 2 -13 4 -28 4 -16 0 -37 7
-48 15 -21 16 -47 16 -209 3z"/>
<path d="M896 315 c-11 -8 -32 -15 -47 -15 -22 0 -39 -15 -39 -36 0 -15 388
10 507 32 61 12 34 19 -69 19 -57 0 -155 3 -218 7 -94 6 -118 5 -134 -7z"/>
</g>
</svg>
